<svg xmlns="http://www.w3.org/2000/svg" width="300" height="41" viewBox="0 0 300 41" fill="none"><path fill-rule="evenodd" clip-rule="evenodd" d="M30.6013 0.0348711C30.59 0.0540735 30.5773 0.613035 30.573 1.27703C30.5686 1.94107 30.559 2.49045 30.5515 2.49798C30.5439 2.50547 30.2991 2.48152 30.0074 2.4447C29.0348 2.32205 27.4903 2.22785 26.2918 2.21813C25.2069 2.20934 25.0847 2.21641 24.8545 2.3015C24.5341 2.41992 24.2228 2.71623 24.1552 2.96712C24.1199 3.09814 24.1086 5.19385 24.1173 9.98091C24.1294 16.648 24.1318 16.8128 24.2209 17.0171C24.2711 17.1322 24.3239 17.2368 24.3382 17.2496C24.3525 17.2624 24.4001 17.3291 24.4439 17.398C24.5541 17.5712 24.8792 17.7829 25.1294 17.8441C25.2444 17.8723 25.6106 17.908 25.9431 17.9233C26.8144 17.9637 28.5983 18.079 29.5726 18.158C30.0344 18.1954 30.4477 18.226 30.491 18.226C30.5639 18.226 30.5697 18.4049 30.5697 20.6724V23.1189L30.2326 23.0908C30.0472 23.0754 29.5607 23.0409 29.1515 23.0141C26.6211 22.8483 26.0957 22.7836 25.4781 22.5621C25.127 22.4362 24.6331 22.1853 24.4086 22.0189C24.3319 21.962 24.2325 21.902 24.1878 21.8855C24.1106 21.857 24.1064 22.0776 24.1064 26.1083V30.3611L24.5597 30.3621C24.8091 30.3625 25.9547 30.3935 27.1056 30.4307C28.2564 30.468 29.5062 30.499 29.883 30.4996L30.568 30.5006L30.5805 31.6281L30.593 32.7556H32.6621H34.7313L34.7546 31.663L34.7778 30.5704L36.8005 30.5347C37.913 30.515 39.294 30.4657 39.8695 30.425C40.4449 30.3843 41.0517 30.3425 41.2179 30.3321C41.3842 30.3217 41.6248 30.2938 41.7527 30.2701C41.8805 30.2465 42.1525 30.2258 42.3571 30.2241C42.8981 30.2197 43.7163 30.0672 44.0379 29.9111C44.3797 29.7451 44.8316 29.2996 44.9961 28.9663C45.3341 28.2817 45.4199 27.2093 45.4146 23.7356C45.4103 20.8759 45.3067 18.4423 45.0979 16.2964C45.0111 15.4042 44.9309 15.1971 44.5273 14.8234C44.0158 14.3499 42.659 13.7701 41.1249 13.3694C39.5772 12.9652 37.5685 12.6063 35.6381 12.3891C35.2672 12.3474 34.9167 12.3041 34.8592 12.2931L34.7546 12.2729L34.7476 11.0765C34.7438 10.4185 34.7369 9.63183 34.7323 9.32831L34.724 8.77646L34.9602 8.80836C35.09 8.82588 35.2905 8.84992 35.4056 8.86178C35.5207 8.87363 35.8031 8.92343 36.0333 8.97244C36.2635 9.02144 36.6192 9.09597 36.8238 9.1381C37.6644 9.3112 38.7401 9.57245 39.5188 9.79265C39.8246 9.87913 40.0914 9.9499 40.1116 9.9499C40.1677 9.9499 40.1558 9.8305 40.0827 9.66089C40.0465 9.57692 39.9721 9.39312 39.9174 9.25247C39.6773 8.63507 39.2415 7.70508 38.9479 7.18345C38.8615 7.03002 38.7271 6.78941 38.6492 6.64876C38.4598 6.30656 37.7765 5.28116 37.7249 5.26168C37.7024 5.25313 37.684 5.22718 37.684 5.20394C37.684 5.16479 37.3837 4.7481 37.3179 4.69598C37.3017 4.68319 37.1631 4.51735 37.0097 4.32746C36.7627 4.02171 36.6878 3.96234 36.3551 3.80844C35.9729 3.63171 35.5035 3.46219 35.022 3.32708L34.7546 3.25204V1.62602V0H32.6881C31.5516 0 30.6125 0.0156688 30.6013 0.0348711ZM20.0377 2.18879C16.7317 2.2855 13.5198 2.57772 11.1332 2.99882C10.9414 3.03267 10.701 3.07456 10.599 3.09195C10.2899 3.14459 9.84164 3.52687 9.48402 4.04291C9.41167 4.14729 9.36275 4.24298 9.37526 4.25553C9.38781 4.26809 9.67866 4.23698 10.0215 4.18649C11.1104 4.02604 13.1379 3.81713 14.7601 3.6982C16.5308 3.56843 17.2423 3.53268 18.9915 3.48572C19.9506 3.45996 21.1804 3.42648 21.7246 3.41133L22.714 3.38376L22.7011 2.77286L22.6882 2.16201L21.9907 2.15704C21.6071 2.15429 20.7282 2.16857 20.0377 2.18879ZM9.62175 3.29211C9.29286 3.43118 9.14216 3.54519 8.75041 3.95123C8.38451 4.33044 7.73952 5.14968 7.34577 5.73542C7.2451 5.88518 7.13541 6.0182 7.10203 6.03099C7.06864 6.04382 7.04135 6.08427 7.04135 6.12095C7.04135 6.15759 6.95435 6.34892 6.848 6.54606C6.3421 7.4839 5.73938 8.73945 5.73938 8.85541C5.73938 8.89177 5.71925 8.93399 5.6946 8.94919C5.66996 8.96439 5.62978 9.04413 5.60528 9.12629C5.58082 9.20849 5.51619 9.3908 5.46174 9.53144C5.33266 9.86495 5.08826 10.5929 4.89985 11.2053C4.81727 11.4738 4.67512 11.8379 4.58398 12.0145C4.42189 12.3287 4.40524 12.3441 3.81173 12.7278C3.47815 12.9436 3.14852 13.16 3.07919 13.2088C3.00991 13.2576 2.94397 13.2975 2.93267 13.2975C2.89719 13.2975 1.8792 13.9748 1.3685 14.3382C0.765412 14.7672 0.503205 15.0062 0.469401 15.1573C0.338972 15.7407 0.108803 18.3752 0.020502 20.295C-0.015953 21.0874 -0.00051535 25.9151 0.0410545 26.7113C0.100294 27.8465 0.19836 28.7984 0.329486 29.5105L0.408301 29.9385L0.639679 29.9881C0.766946 30.0154 1.2184 30.0573 1.64289 30.0813C2.06742 30.1053 2.77044 30.1467 3.2052 30.1734C5.8959 30.3384 11.2262 30.4956 11.2262 30.4099C11.2262 30.382 11.6457 30.2743 12.0865 30.189C12.1888 30.1692 12.534 30.1547 12.8537 30.1568C13.572 30.1615 17.4975 30.256 19.41 30.3146C20.19 30.3385 21.2524 30.3587 21.7709 30.3596L22.7136 30.3611L22.7009 29.5591L22.6882 28.7571L21.3165 28.7473C19.5368 28.7345 15.8417 28.6555 13.9232 28.589C12.8589 28.5522 12.3844 28.5192 12.319 28.4775C12.2274 28.4193 12.1431 28.271 11.9049 27.7487C11.7717 27.4567 11.7562 27.3391 11.84 27.2553C11.8828 27.2125 13.1585 27.1995 17.2989 27.1995H22.702L22.7206 23.7937C22.7317 21.7482 22.722 20.3647 22.6962 20.3296C22.6722 20.2971 22.668 20.1631 22.6866 20.0274C22.734 19.6819 22.7329 19.8439 22.7216 15.0458L22.7114 10.68L19.8634 10.7072C16.7628 10.7368 13.474 10.8054 11.3192 10.8853C10.5648 10.9133 9.08204 10.947 8.02424 10.9601L6.10096 10.984L6.13346 10.6878C6.24171 9.70278 7.22297 6.98022 7.47146 6.97571C7.5512 6.97427 7.57101 6.91178 7.55525 6.71135C7.55088 6.65625 7.56948 6.59743 7.59659 6.58069C7.62365 6.564 7.64583 6.4924 7.64583 6.42164C7.64583 6.34492 7.69224 6.24942 7.76082 6.18498C7.82406 6.12556 7.93217 5.97022 8.00099 5.8398C8.18001 5.50057 8.21395 5.44115 8.36205 5.20742C8.87089 4.4046 9.30481 3.83266 9.69484 3.45075C9.95319 3.19778 9.93552 3.15942 9.62175 3.29211ZM30.3953 8.39892L30.5697 8.42775V10.1935V11.9592L30.0931 11.9254C29.537 11.8859 29.286 11.789 29.0875 11.5371C28.9008 11.3003 28.8555 11.0245 28.8195 9.90563C28.7909 9.01521 28.7957 8.91125 28.8737 8.73833C29.0037 8.45021 29.1882 8.37354 29.756 8.37163C30.0117 8.37079 30.2995 8.38307 30.3953 8.39892ZM2.92621 15.296C4.29634 15.3665 5.8321 15.592 6.94835 15.8864C7.7452 16.0966 7.8494 16.1274 8.38981 16.3116C9.25789 16.6076 9.97393 16.921 10.7612 17.3496C11.2063 17.5919 12.0174 18.1723 12.0155 18.2471C12.0126 18.3672 10.3252 19.0129 10.0084 19.0151C9.91399 19.0158 9.82592 19.0339 9.81267 19.0554C9.79942 19.0768 9.66741 19.0879 9.51931 19.0801C9.37121 19.0723 9.07218 19.0566 8.8548 19.0453C8.42013 19.0226 7.35224 18.9159 6.41361 18.8014C5.44644 18.6834 5.31406 18.6952 4.73264 18.9517C4.54502 19.0345 4.30127 19.0337 3.9755 18.9493C3.83317 18.9125 3.53962 18.837 3.32321 18.7817C2.35627 18.5344 2.07435 18.2887 1.87469 17.5194C1.78466 17.1724 1.77699 17.0511 1.79913 16.3197C1.82354 15.5135 1.86892 15.2502 1.98345 15.2504C2.01604 15.2505 2.4403 15.271 2.92621 15.296ZM35.6613 18.811C35.9171 18.8481 36.2205 18.8983 36.3356 18.9226C36.4506 18.9469 36.6285 18.9796 36.7308 18.9952C36.8331 19.0108 37.0633 19.055 37.2423 19.0933C38.1512 19.288 38.3697 19.3566 38.4421 19.4699C38.4644 19.5049 38.5242 19.5171 38.591 19.5004C38.8188 19.4432 39.7457 19.8368 39.9967 20.0973C40.1379 20.2439 40.1446 20.2701 40.2152 20.9501C40.2552 21.336 40.2879 21.8547 40.2879 22.1027C40.2879 22.8381 40.1072 23.0568 39.4155 23.1582C39.2099 23.1884 38.1341 23.2207 36.9052 23.2338L34.7546 23.2566V20.9709V18.6852L34.9755 18.7144C35.0969 18.7304 35.4056 18.7739 35.6613 18.811ZM1.53125 23.7312C1.58239 23.7455 1.79164 23.788 1.99623 23.8256C2.42621 23.9045 3.164 24.0554 3.60044 24.1536C3.76667 24.191 4.43625 24.3381 5.0884 24.4806C5.74054 24.6231 6.73445 24.8558 7.29709 24.9978C7.85972 25.1398 8.3933 25.2731 8.48281 25.2939C8.79635 25.3669 9.23409 25.5197 9.35773 25.5993C9.62891 25.7738 9.96784 26.1953 10.1728 26.613C10.5482 27.3784 10.6269 27.8495 10.4146 28.0617C10.3091 28.1672 10.2663 28.1759 9.84964 28.1759C9.60166 28.1759 9.11421 28.1438 8.7664 28.1045C7.38014 27.9481 6.26989 27.7996 5.62313 27.6842C5.09328 27.5897 4.97555 27.5977 4.82368 27.7384C4.71715 27.8372 4.66428 27.8539 4.53069 27.831C4.44104 27.8157 4.22961 27.7829 4.06087 27.7582C3.89213 27.7335 3.57826 27.653 3.36339 27.5792C2.27564 27.2059 1.71701 26.5806 1.44555 25.4327C1.34976 25.0275 1.24235 23.9848 1.26927 23.7209C1.27281 23.6859 1.31047 23.6694 1.35688 23.6823C1.40165 23.6948 1.4801 23.7167 1.53125 23.7312ZM0.133494 30.3146C0.262342 32.3545 0.402908 33.2182 0.625497 33.3373C0.679343 33.3661 1.735 33.3833 3.4522 33.3833C5.68251 33.3833 6.2026 33.3717 6.24454 33.3212C6.39729 33.1371 6.53288 32.3227 6.60268 31.1704L6.63388 30.6547L5.89604 30.6237C4.22682 30.5537 1.11373 30.3529 0.532964 30.2778C0.289311 30.2463 0.27671 30.2378 0.230723 30.0744C0.137725 29.7436 0.102851 29.8297 0.133494 30.3146Z" fill="#127BBF"></path><path fill-rule="evenodd" clip-rule="evenodd" d="M20.0361 2.14147C16.7303 2.23818 13.5187 2.5304 11.1323 2.9515C10.9405 2.98535 10.7001 3.02724 10.5981 3.04463C10.289 3.09726 9.84082 3.47954 9.48322 3.99559C9.41088 4.09997 9.36196 4.19566 9.37447 4.20821C9.38702 4.22076 9.67785 4.18966 10.0207 4.13917C11.1094 3.97871 13.1368 3.76981 14.7589 3.65088C16.5294 3.52111 17.2409 3.48536 18.9899 3.4384C19.9489 3.41264 21.1787 3.37916 21.7228 3.364L22.7121 3.33643L22.6992 2.72554L22.6863 2.11469L21.9888 2.10971C21.6053 2.10697 20.7265 2.12124 20.0361 2.14147ZM9.62094 3.24479C9.29208 3.38386 9.14139 3.49786 8.74967 3.9039C8.38381 4.28311 7.73888 5.10235 7.34516 5.6881C7.2445 5.83786 7.13481 5.97088 7.10143 5.98366C7.06805 5.9965 7.04076 6.03695 7.04076 6.07363C7.04076 6.11027 6.95376 6.30159 6.84743 6.49873C6.34157 7.43658 5.7389 8.69213 5.7389 8.80809C5.7389 8.84444 5.71877 8.88666 5.69413 8.90186C5.66948 8.91707 5.62931 8.99681 5.60481 9.07896C5.58035 9.16117 5.51573 9.34347 5.46128 9.48412C5.33221 9.81763 5.08783 10.5456 4.89944 11.1579C4.81686 11.4264 4.67473 11.7906 4.5836 11.9672C4.42152 12.2813 4.40487 12.2967 3.81141 12.6805C3.47786 12.8963 3.14825 13.1127 3.07893 13.1615C3.00965 13.2103 2.94372 13.2502 2.93243 13.2502C2.89695 13.2502 1.87904 13.9275 1.36839 14.2908C0.765348 14.7199 0.503163 14.9588 0.469361 15.11C0.338943 15.6934 0.108794 18.3279 0.0205003 20.2477C-0.0159517 21.04 -0.000515304 25.8677 0.0410511 26.664C0.100286 27.7992 0.198343 28.7511 0.329458 29.4632L0.408267 29.8911L0.639625 29.9408C0.766882 29.968 1.2183 30.01 1.64275 30.034C2.06725 30.058 2.77021 30.0994 3.20493 30.1261C5.8954 30.291 11.2253 30.4482 11.2253 30.3626C11.2253 30.3347 11.6447 30.227 12.0854 30.1416C12.1877 30.1218 12.533 30.1073 12.8526 30.1095C13.5709 30.1142 17.496 30.2086 19.4084 30.2673C20.1883 30.2912 21.2506 30.3114 21.7691 30.3123L22.7117 30.3138L22.699 29.5118L22.6863 28.7097L21.3147 28.6999C19.5351 28.6872 15.8403 28.6081 13.922 28.5417C12.8578 28.5048 12.3834 28.4719 12.3179 28.4302C12.2264 28.372 12.1421 28.2236 11.9039 27.7014C11.7707 27.4093 11.7552 27.2918 11.839 27.208C11.8818 27.1652 13.1574 27.1522 17.2975 27.1522H22.7001L22.7187 23.7464C22.7298 21.7009 22.7201 20.3174 22.6943 20.2823C22.6703 20.2498 22.6661 20.1158 22.6847 19.9801C22.7321 19.6345 22.731 19.7966 22.7197 14.9985L22.7095 10.6327L19.8617 10.6599C16.7614 10.6895 13.4729 10.758 11.3183 10.838C10.5639 10.866 9.08127 10.8997 8.02356 10.9128L6.10044 10.9367L6.13294 10.6405C6.24118 9.65545 7.22236 6.9329 7.47083 6.92839C7.55057 6.92695 7.57038 6.86446 7.55462 6.66402C7.55025 6.60893 7.56884 6.55011 7.59595 6.53337C7.62301 6.51668 7.64519 6.44508 7.64519 6.37431C7.64519 6.2976 7.69159 6.2021 7.76017 6.13765C7.8234 6.07823 7.9315 5.92289 8.00032 5.79248C8.17932 5.45325 8.21326 5.39383 8.36135 5.1601C8.87014 4.35727 9.30403 3.78534 9.69403 3.40343C9.95236 3.15045 9.93469 3.1121 9.62094 3.24479ZM2.92596 15.2486C4.29598 15.3192 5.83161 15.5446 6.94777 15.8391C7.74455 16.0493 7.84874 16.0801 8.38911 16.2643C9.25712 16.5603 9.97309 16.8737 10.7603 17.3023C11.2053 17.5446 12.0164 18.125 12.0145 18.1998C12.0116 18.3199 10.3243 18.9655 10.0075 18.9678C9.91316 18.9685 9.8251 18.9866 9.81185 19.008C9.7986 19.0295 9.6666 19.0406 9.51851 19.0328C9.37043 19.025 9.07142 19.0092 8.85405 18.9979C8.41942 18.9753 7.35162 18.8685 6.41308 18.754C5.44598 18.636 5.31361 18.6478 4.73224 18.9044C4.54463 18.9872 4.30091 18.9864 3.97517 18.902C3.83284 18.8652 3.53932 18.7897 3.32294 18.7344C2.35608 18.4871 2.07418 18.2414 1.87453 17.472C1.78451 17.125 1.77684 17.0038 1.79897 16.2724C1.82338 15.4662 1.86876 15.2029 1.98328 15.2031C2.01587 15.2031 2.44009 15.2237 2.92596 15.2486ZM1.53112 23.6838C1.58226 23.6982 1.79149 23.7407 1.99607 23.7783C2.426 23.8572 3.16374 24.008 3.60014 24.1062C3.76636 24.1437 4.43588 24.2908 5.08797 24.4333C5.74006 24.5757 6.73389 24.8085 7.29648 24.9505C7.85907 25.0925 8.39259 25.2257 8.4821 25.2466C8.79561 25.3196 9.23331 25.4724 9.35694 25.5519C9.6281 25.7264 9.967 26.148 10.1719 26.5657C10.5473 27.3311 10.626 27.8022 10.4137 28.0144C10.3083 28.1199 10.2655 28.1285 9.84881 28.1285C9.60085 28.1285 9.11345 28.0964 8.76567 28.0572C7.37952 27.9008 6.26936 27.7523 5.62266 27.6369C5.09286 27.5424 4.97513 27.5503 4.82328 27.6911C4.71676 27.7898 4.66389 27.8065 4.53031 27.7837C4.44067 27.7684 4.22926 27.7356 4.06053 27.7109C3.8918 27.6862 3.57796 27.6056 3.36311 27.5318C2.27545 27.1585 1.71686 26.5333 1.44543 25.3854C1.34965 24.9802 1.24225 23.9375 1.26917 23.6736C1.2727 23.6386 1.31036 23.622 1.35676 23.635C1.40154 23.6475 1.47997 23.6694 1.53112 23.6838ZM0.133483 30.2673C0.26232 32.3071 0.402874 33.1709 0.625445 33.29C0.679286 33.3188 1.73486 33.336 3.45191 33.336C5.68204 33.336 6.20208 33.3244 6.24402 33.2739C6.39676 33.0898 6.53233 32.2754 6.60212 31.1231L6.63332 30.6073L5.89554 30.5764C4.22647 30.5063 1.11364 30.3055 0.53292 30.2304C0.289287 30.199 0.276687 30.1905 0.230703 30.027C0.137714 29.6963 0.102843 29.7824 0.133483 30.2673Z" fill="#042467"></path><path d="M9.85713 3.20703C9.03882 3.39301 7.09843 8.42995 6.23053 10.9252C5.71909 11.2351 4.7055 11.8458 4.7427 11.8086C4.78919 11.5296 5.39362 9.48383 5.5796 8.97239C5.76558 8.46095 6.88146 6.32219 7.81136 4.83435C8.55527 3.64408 9.48517 3.25353 9.85713 3.20703Z" fill="#042467"></path><path d="M55.3184 17.7121C55.3184 15.1901 55.8397 12.947 56.8825 10.9828C57.9495 8.99426 59.453 7.45438 61.393 6.36314C63.333 5.24764 65.564 4.68989 68.086 4.68989C71.287 4.68989 73.9787 5.55076 76.1612 7.27251C78.3437 8.97001 79.7502 11.2859 80.3807 14.2201H72.7056C72.2449 13.2501 71.6022 12.5105 70.7777 12.0013C69.9775 11.492 69.0439 11.2374 67.9769 11.2374C66.3279 11.2374 65.0062 11.8315 64.012 13.0198C63.042 14.1838 62.557 15.7479 62.557 17.7121C62.557 19.7006 63.042 21.289 64.012 22.4773C65.0062 23.6413 66.3279 24.2233 67.9769 24.2233C69.0439 24.2233 69.9775 23.9686 70.7777 23.4594C71.6022 22.9501 72.2449 22.2105 72.7056 21.2405H80.3807C79.7502 24.1748 78.3437 26.5028 76.1612 28.2245C73.9787 29.922 71.287 30.7708 68.086 30.7708C65.564 30.7708 63.333 30.2251 61.393 29.1339C59.453 28.0184 57.9495 26.4785 56.8825 24.5143C55.8397 22.5258 55.3184 20.2584 55.3184 17.7121Z" fill="#042467"></path><path d="M81.5015 20.3675C81.5015 18.2578 81.8774 16.4148 82.6292 14.8385C83.4052 13.2623 84.4479 12.0498 85.7574 11.201C87.0912 10.3523 88.5704 9.92788 90.1952 9.92788C91.6017 9.92788 92.8142 10.2068 93.8327 10.7645C94.8512 11.3223 95.6393 12.074 96.197 13.0198V10.1825H103.327V30.5889H96.197V27.7516C95.6393 28.6974 94.839 29.4491 93.7963 30.0069C92.7778 30.5646 91.5774 30.8435 90.1952 30.8435C88.5704 30.8435 87.0912 30.4191 85.7574 29.5704C84.4479 28.7216 83.4052 27.5091 82.6292 25.9329C81.8774 24.3324 81.5015 22.4773 81.5015 20.3675ZM96.197 20.3675C96.197 19.058 95.8333 18.0274 95.1058 17.2756C94.4025 16.5239 93.5295 16.148 92.4868 16.148C91.4198 16.148 90.5347 16.5239 89.8314 17.2756C89.1282 18.0031 88.7765 19.0338 88.7765 20.3675C88.7765 21.677 89.1282 22.7198 89.8314 23.4958C90.5347 24.2475 91.4198 24.6234 92.4868 24.6234C93.5295 24.6234 94.4025 24.2475 95.1058 23.4958C95.8333 22.744 96.197 21.7013 96.197 20.3675Z" fill="#042467"></path><path d="M113.427 13.7836C114.228 12.6196 115.198 11.6981 116.337 11.0191C117.477 10.3401 118.702 10.0006 120.011 10.0006V17.603H118.011C116.459 17.603 115.307 17.9061 114.555 18.5124C113.803 19.1186 113.427 20.1735 113.427 21.677V30.5889H106.298V10.1825H113.427V13.7836Z" fill="#042467"></path><path d="M130.17 30.8435C128.327 30.8435 126.678 30.5404 125.223 29.9341C123.792 29.3036 122.652 28.4549 121.803 27.3879C120.979 26.2966 120.518 25.072 120.421 23.714H127.332C127.429 24.3688 127.732 24.878 128.242 25.2418C128.751 25.6055 129.381 25.7874 130.133 25.7874C130.715 25.7874 131.176 25.6661 131.515 25.4236C131.855 25.1811 132.025 24.8659 132.025 24.4779C132.025 23.9686 131.746 23.5928 131.188 23.3503C130.63 23.1078 129.709 22.841 128.424 22.55C126.969 22.259 125.756 21.9316 124.786 21.5679C123.816 21.2041 122.967 20.61 122.24 19.7855C121.537 18.961 121.185 17.8455 121.185 16.439C121.185 15.2265 121.512 14.1353 122.167 13.1653C122.822 12.171 123.78 11.3829 125.041 10.8009C126.326 10.2189 127.866 9.92788 129.66 9.92788C132.328 9.92788 134.425 10.5826 135.953 11.8921C137.481 13.2016 138.366 14.9234 138.609 17.0574H132.17C132.049 16.4026 131.758 15.9055 131.297 15.566C130.861 15.2023 130.267 15.0204 129.515 15.0204C128.933 15.0204 128.484 15.1295 128.169 15.3478C127.878 15.566 127.732 15.8691 127.732 16.2571C127.732 16.7421 128.011 17.118 128.569 17.3848C129.127 17.6273 130.024 17.8819 131.261 18.1486C132.74 18.4639 133.965 18.8155 134.935 19.2035C135.929 19.5915 136.79 20.222 137.517 21.095C138.269 21.9438 138.645 23.1078 138.645 24.587C138.645 25.7753 138.293 26.8423 137.59 27.788C136.911 28.7338 135.929 29.4855 134.644 30.0433C133.383 30.5768 131.891 30.8435 130.17 30.8435Z" fill="#042467"></path><path d="M163.379 20.3675C163.379 18.2578 163.816 16.4148 164.689 14.8385C165.562 13.2623 166.774 12.0498 168.326 11.201C169.903 10.3523 171.697 9.92788 173.71 9.92788C176.305 9.92788 178.487 10.6433 180.257 12.074C182.028 13.4805 183.167 15.4569 183.677 18.0031H176.111C175.674 16.6694 174.825 16.0025 173.564 16.0025C172.667 16.0025 171.952 16.3784 171.418 17.1301C170.909 17.8576 170.654 18.9368 170.654 20.3675C170.654 21.7983 170.909 22.8895 171.418 23.6413C171.952 24.393 172.667 24.7689 173.564 24.7689C174.85 24.7689 175.698 24.102 176.111 22.7683H183.677C183.167 25.2903 182.028 27.2666 180.257 28.6974C178.487 30.1281 176.305 30.8435 173.71 30.8435C171.697 30.8435 169.903 30.4191 168.326 29.5704C166.774 28.7216 165.562 27.5091 164.689 25.9329C163.816 24.3566 163.379 22.5015 163.379 20.3675Z" fill="#042467"></path><path d="M198.969 10.0006C201.297 10.0006 203.14 10.7888 204.498 12.365C205.881 13.917 206.572 16.0268 206.572 18.6943V30.5889H199.442V19.64C199.442 18.476 199.139 17.5666 198.533 16.9119C197.927 16.2329 197.114 15.8934 196.096 15.8934C195.029 15.8934 194.192 16.2329 193.586 16.9119C192.98 17.5666 192.677 18.476 192.677 19.64V30.5889H185.547V3.67139H192.677V13.0925C193.307 12.171 194.156 11.4314 195.223 10.8736C196.314 10.2916 197.563 10.0006 198.969 10.0006Z" fill="#042467"></path><path d="M208.229 20.3675C208.229 18.2578 208.604 16.4148 209.356 14.8385C210.132 13.2623 211.175 12.0498 212.484 11.201C213.818 10.3523 215.297 9.92788 216.922 9.92788C218.329 9.92788 219.541 10.2068 220.56 10.7645C221.578 11.3223 222.366 12.074 222.924 13.0198V10.1825H230.054V30.5889H222.924V27.7516C222.366 28.6974 221.566 29.4491 220.523 30.0069C219.505 30.5646 218.304 30.8435 216.922 30.8435C215.297 30.8435 213.818 30.4191 212.484 29.5704C211.175 28.7216 210.132 27.5091 209.356 25.9329C208.604 24.3324 208.229 22.4773 208.229 20.3675ZM222.924 20.3675C222.924 19.058 222.56 18.0274 221.833 17.2756C221.13 16.5239 220.257 16.148 219.214 16.148C218.147 16.148 217.262 16.5239 216.558 17.2756C215.855 18.0031 215.504 19.0338 215.504 20.3675C215.504 21.677 215.855 22.7198 216.558 23.4958C217.262 24.2475 218.147 24.6234 219.214 24.6234C220.257 24.6234 221.13 24.2475 221.833 23.4958C222.56 22.744 222.924 21.7013 222.924 20.3675Z" fill="#042467"></path><path d="M246.375 10.0006C248.727 10.0006 250.594 10.7888 251.976 12.365C253.359 13.917 254.05 16.0268 254.05 18.6943V30.5889H246.92V19.64C246.92 18.476 246.617 17.5666 246.011 16.9119C245.405 16.2329 244.592 15.8934 243.574 15.8934C242.507 15.8934 241.67 16.2329 241.064 16.9119C240.458 17.5666 240.154 18.476 240.154 19.64V30.5889H233.025V10.1825H240.154V13.0925C240.785 12.171 241.634 11.4314 242.701 10.8736C243.768 10.2916 244.992 10.0006 246.375 10.0006Z" fill="#042467"></path><path d="M264.4 9.92788C265.782 9.92788 266.983 10.2068 268.001 10.7645C269.044 11.3223 269.844 12.074 270.402 13.0198V10.1825H277.532V30.3706C277.532 32.2864 277.168 34.0081 276.44 35.5359C275.713 37.0879 274.573 38.3246 273.021 39.2461C271.493 40.1676 269.553 40.6284 267.201 40.6284C264.049 40.6284 261.527 39.8888 259.635 38.4095C257.744 36.9303 256.664 34.9175 256.398 32.3713H263.418C263.564 33.026 263.927 33.5353 264.509 33.899C265.091 34.2628 265.843 34.4446 266.765 34.4446C269.19 34.4446 270.402 33.0866 270.402 30.3706V27.7516C269.844 28.6974 269.044 29.4491 268.001 30.0069C266.983 30.5646 265.782 30.8435 264.4 30.8435C262.775 30.8435 261.296 30.4191 259.962 29.5704C258.653 28.7216 257.61 27.5091 256.834 25.9329C256.082 24.3324 255.707 22.4773 255.707 20.3675C255.707 18.2578 256.082 16.4148 256.834 14.8385C257.61 13.2623 258.653 12.0498 259.962 11.201C261.296 10.3523 262.775 9.92788 264.4 9.92788ZM270.402 20.3675C270.402 19.058 270.038 18.0274 269.311 17.2756C268.608 16.5239 267.735 16.148 266.692 16.148C265.625 16.148 264.74 16.5239 264.036 17.2756C263.333 18.0031 262.982 19.0338 262.982 20.3675C262.982 21.677 263.333 22.7198 264.036 23.4958C264.74 24.2475 265.625 24.6234 266.692 24.6234C267.735 24.6234 268.608 24.2475 269.311 23.4958C270.038 22.744 270.402 21.7013 270.402 20.3675Z" fill="#042467"></path><path d="M300 20.1493C300 20.707 299.964 21.2648 299.891 21.8225H286.396C286.468 22.938 286.772 23.7746 287.305 24.3324C287.863 24.8659 288.566 25.1326 289.415 25.1326C290.603 25.1326 291.452 24.5991 291.961 23.5321H299.563C299.248 24.9386 298.63 26.1996 297.708 27.3151C296.811 28.4064 295.671 29.2673 294.289 29.8978C292.907 30.5283 291.379 30.8435 289.706 30.8435C287.693 30.8435 285.899 30.4191 284.322 29.5704C282.77 28.7216 281.546 27.5091 280.648 25.9329C279.775 24.3566 279.339 22.5015 279.339 20.3675C279.339 18.2335 279.775 16.3905 280.648 14.8385C281.521 13.2623 282.734 12.0498 284.286 11.201C285.862 10.3523 287.669 9.92788 289.706 9.92788C291.719 9.92788 293.501 10.3401 295.053 11.1646C296.605 11.9891 297.817 13.1774 298.69 14.7294C299.563 16.2571 300 18.0638 300 20.1493ZM292.725 18.3669C292.725 17.4939 292.434 16.8149 291.852 16.3299C291.27 15.8206 290.542 15.566 289.669 15.566C288.796 15.566 288.081 15.8085 287.523 16.2935C286.966 16.7543 286.602 17.4454 286.432 18.3669H292.725Z" fill="#042467"></path><path d="M156.71 13.4233L161.995 4.17432H156.084L153.777 8.21377L156.71 13.4233Z" fill="#127BBF"></path><path fill-rule="evenodd" clip-rule="evenodd" d="M156.706 14.7242L153.039 8.21135L155.711 3.53223H163.102L156.706 14.7242ZM161.995 4.17414H156.084L153.777 8.21359L156.71 13.4232L161.995 4.17414Z" fill="#127BBF"></path><path d="M147.626 22.3057L149.637 25.8262L147.346 29.8504L141.455 29.8352L146.674 20.6421L147.626 22.3057Z" fill="#127BBF"></path><path fill-rule="evenodd" clip-rule="evenodd" d="M150.376 25.826L147.719 30.4936L140.354 30.4745L146.672 19.3462L150.376 25.826ZM149.637 25.8265L147.346 29.8507L141.454 29.8354L146.674 20.6423L149.637 25.8265Z" fill="#127BBF"></path><path d="M161.996 29.8508H156.084L141.455 4.17432H147.346L161.996 29.8508Z" fill="#127BBF"></path><path fill-rule="evenodd" clip-rule="evenodd" d="M163.101 30.4925H155.711L140.35 3.53223H147.719L163.101 30.4925ZM161.996 29.8506L147.346 4.17414H141.455L156.084 29.8506H161.996Z" fill="#127BBF"></path></svg>